<mxfile host="app.diagrams.net" modified="2024-01-07T09:30:56.075Z" agent="Mozilla/5.0 (Windows NT 10.0; Win64; x64) AppleWebKit/537.36 (KHTML, like Gecko) Chrome/120.0.0.0 Safari/537.36 Edg/120.0.0.0" etag="2TPr1L1z_nwnFNkLNWHR" version="22.1.17" type="github">
  <diagram name="Page-1" id="1qvj9gv8hx600xTdqgaV">
    <mxGraphModel dx="1113" dy="712" grid="1" gridSize="10" guides="1" tooltips="1" connect="1" arrows="1" fold="1" page="1" pageScale="1" pageWidth="1100" pageHeight="850" math="0" shadow="0">
      <root>
        <mxCell id="0" />
        <mxCell id="1" parent="0" />
        <mxCell id="XbGWUctrTEADIuY7hZU9-1" value="" style="whiteSpace=wrap;html=1;aspect=fixed;" vertex="1" parent="1">
          <mxGeometry x="220" y="35" width="570" height="570" as="geometry" />
        </mxCell>
        <mxCell id="sekp1KyvqEFsNMxRi9oe-1" value="User Admin" style="shape=umlActor;verticalLabelPosition=bottom;verticalAlign=top;html=1;outlineConnect=0;fillColor=#dae8fc;gradientColor=#7ea6e0;strokeColor=#6c8ebf;" parent="1" vertex="1">
          <mxGeometry x="160" y="290" width="30" height="60" as="geometry" />
        </mxCell>
        <mxCell id="sekp1KyvqEFsNMxRi9oe-7" value="Details Data Hewan" style="ellipse;whiteSpace=wrap;html=1;" parent="1" vertex="1">
          <mxGeometry x="325" y="260" width="100" height="50" as="geometry" />
        </mxCell>
        <mxCell id="sekp1KyvqEFsNMxRi9oe-8" value="Input Data Hewan" style="ellipse;whiteSpace=wrap;html=1;" parent="1" vertex="1">
          <mxGeometry x="325" y="190" width="100" height="50" as="geometry" />
        </mxCell>
        <mxCell id="sekp1KyvqEFsNMxRi9oe-11" value="Update Data Hewan" style="ellipse;whiteSpace=wrap;html=1;" parent="1" vertex="1">
          <mxGeometry x="325" y="330" width="100" height="50" as="geometry" />
        </mxCell>
        <mxCell id="sekp1KyvqEFsNMxRi9oe-12" value="Delete Data Hewan" style="ellipse;whiteSpace=wrap;html=1;" parent="1" vertex="1">
          <mxGeometry x="325" y="390" width="100" height="50" as="geometry" />
        </mxCell>
        <mxCell id="sekp1KyvqEFsNMxRi9oe-15" value="Include" style="text;html=1;strokeColor=none;fillColor=none;align=center;verticalAlign=middle;whiteSpace=wrap;rounded=0;" parent="1" vertex="1">
          <mxGeometry x="460" y="277" width="60" height="30" as="geometry" />
        </mxCell>
        <mxCell id="sekp1KyvqEFsNMxRi9oe-16" value="Include" style="text;html=1;strokeColor=none;fillColor=none;align=center;verticalAlign=middle;whiteSpace=wrap;rounded=0;" parent="1" vertex="1">
          <mxGeometry x="475" y="207" width="60" height="30" as="geometry" />
        </mxCell>
        <mxCell id="sekp1KyvqEFsNMxRi9oe-18" value="Include" style="text;html=1;strokeColor=none;fillColor=none;align=center;verticalAlign=middle;whiteSpace=wrap;rounded=0;" parent="1" vertex="1">
          <mxGeometry x="475" y="393" width="60" height="30" as="geometry" />
        </mxCell>
        <mxCell id="sekp1KyvqEFsNMxRi9oe-19" value="Include" style="text;html=1;strokeColor=none;fillColor=none;align=center;verticalAlign=middle;whiteSpace=wrap;rounded=0;" parent="1" vertex="1">
          <mxGeometry x="460" y="334" width="60" height="30" as="geometry" />
        </mxCell>
        <mxCell id="sekp1KyvqEFsNMxRi9oe-21" value="Login" style="ellipse;whiteSpace=wrap;html=1;" parent="1" vertex="1">
          <mxGeometry x="520" y="300" width="100" height="40" as="geometry" />
        </mxCell>
        <mxCell id="sekp1KyvqEFsNMxRi9oe-22" value="Logout" style="ellipse;whiteSpace=wrap;html=1;" parent="1" vertex="1">
          <mxGeometry x="325" y="450" width="100" height="40" as="geometry" />
        </mxCell>
        <mxCell id="sekp1KyvqEFsNMxRi9oe-23" value="Register" style="ellipse;whiteSpace=wrap;html=1;" parent="1" vertex="1">
          <mxGeometry x="325" y="140" width="100" height="40" as="geometry" />
        </mxCell>
        <mxCell id="sekp1KyvqEFsNMxRi9oe-28" value="Extend" style="text;html=1;strokeColor=none;fillColor=none;align=center;verticalAlign=middle;whiteSpace=wrap;rounded=0;" parent="1" vertex="1">
          <mxGeometry x="510" y="138" width="60" height="30" as="geometry" />
        </mxCell>
        <mxCell id="sekp1KyvqEFsNMxRi9oe-29" value="Include" style="text;html=1;strokeColor=none;fillColor=none;align=center;verticalAlign=middle;whiteSpace=wrap;rounded=0;" parent="1" vertex="1">
          <mxGeometry x="510" y="449" width="60" height="30" as="geometry" />
        </mxCell>
        <mxCell id="XbGWUctrTEADIuY7hZU9-3" value="Animals App" style="text;html=1;strokeColor=none;fillColor=none;align=center;verticalAlign=middle;whiteSpace=wrap;rounded=0;" vertex="1" parent="1">
          <mxGeometry x="450" y="40" width="110" height="30" as="geometry" />
        </mxCell>
        <mxCell id="XbGWUctrTEADIuY7hZU9-6" value="" style="endArrow=none;html=1;rounded=0;entryX=0;entryY=1;entryDx=0;entryDy=0;exitX=1;exitY=0.3333333333333333;exitDx=0;exitDy=0;exitPerimeter=0;" edge="1" parent="1" source="sekp1KyvqEFsNMxRi9oe-1" target="sekp1KyvqEFsNMxRi9oe-23">
          <mxGeometry width="50" height="50" relative="1" as="geometry">
            <mxPoint x="270" y="260" as="sourcePoint" />
            <mxPoint x="320" y="210" as="targetPoint" />
          </mxGeometry>
        </mxCell>
        <mxCell id="XbGWUctrTEADIuY7hZU9-7" value="" style="endArrow=none;html=1;rounded=0;entryX=0;entryY=1;entryDx=0;entryDy=0;" edge="1" parent="1" target="sekp1KyvqEFsNMxRi9oe-8">
          <mxGeometry width="50" height="50" relative="1" as="geometry">
            <mxPoint x="190" y="310" as="sourcePoint" />
            <mxPoint x="290" y="250" as="targetPoint" />
          </mxGeometry>
        </mxCell>
        <mxCell id="XbGWUctrTEADIuY7hZU9-8" value="" style="endArrow=none;html=1;rounded=0;entryX=0;entryY=0.5;entryDx=0;entryDy=0;exitX=1;exitY=0.3333333333333333;exitDx=0;exitDy=0;exitPerimeter=0;" edge="1" parent="1" source="sekp1KyvqEFsNMxRi9oe-1" target="sekp1KyvqEFsNMxRi9oe-7">
          <mxGeometry width="50" height="50" relative="1" as="geometry">
            <mxPoint x="220" y="330" as="sourcePoint" />
            <mxPoint x="270" y="280" as="targetPoint" />
          </mxGeometry>
        </mxCell>
        <mxCell id="XbGWUctrTEADIuY7hZU9-9" value="" style="endArrow=none;html=1;rounded=0;exitX=0.017;exitY=0.313;exitDx=0;exitDy=0;entryX=1;entryY=0.3333333333333333;entryDx=0;entryDy=0;entryPerimeter=0;exitPerimeter=0;" edge="1" parent="1" source="sekp1KyvqEFsNMxRi9oe-11" target="sekp1KyvqEFsNMxRi9oe-1">
          <mxGeometry width="50" height="50" relative="1" as="geometry">
            <mxPoint x="280" y="350" as="sourcePoint" />
            <mxPoint x="330" y="300" as="targetPoint" />
          </mxGeometry>
        </mxCell>
        <mxCell id="XbGWUctrTEADIuY7hZU9-10" value="" style="endArrow=none;html=1;rounded=0;entryX=0;entryY=0;entryDx=0;entryDy=0;exitX=1;exitY=0.3333333333333333;exitDx=0;exitDy=0;exitPerimeter=0;" edge="1" parent="1" source="sekp1KyvqEFsNMxRi9oe-1" target="sekp1KyvqEFsNMxRi9oe-12">
          <mxGeometry width="50" height="50" relative="1" as="geometry">
            <mxPoint x="240" y="410" as="sourcePoint" />
            <mxPoint x="290" y="360" as="targetPoint" />
          </mxGeometry>
        </mxCell>
        <mxCell id="XbGWUctrTEADIuY7hZU9-11" value="" style="endArrow=none;html=1;rounded=0;entryX=0;entryY=0.5;entryDx=0;entryDy=0;exitX=1;exitY=0.3333333333333333;exitDx=0;exitDy=0;exitPerimeter=0;" edge="1" parent="1" source="sekp1KyvqEFsNMxRi9oe-1" target="sekp1KyvqEFsNMxRi9oe-22">
          <mxGeometry width="50" height="50" relative="1" as="geometry">
            <mxPoint x="240" y="460" as="sourcePoint" />
            <mxPoint x="290" y="410" as="targetPoint" />
          </mxGeometry>
        </mxCell>
        <mxCell id="XbGWUctrTEADIuY7hZU9-12" value="" style="endArrow=classic;html=1;rounded=0;exitX=1;exitY=0.5;exitDx=0;exitDy=0;entryX=0;entryY=0.5;entryDx=0;entryDy=0;dashed=1;" edge="1" parent="1" source="sekp1KyvqEFsNMxRi9oe-7" target="sekp1KyvqEFsNMxRi9oe-21">
          <mxGeometry width="50" height="50" relative="1" as="geometry">
            <mxPoint x="440" y="270" as="sourcePoint" />
            <mxPoint x="490" y="230" as="targetPoint" />
            <Array as="points">
              <mxPoint x="520" y="285" />
            </Array>
          </mxGeometry>
        </mxCell>
        <mxCell id="XbGWUctrTEADIuY7hZU9-13" value="" style="endArrow=classic;html=1;rounded=0;exitX=1;exitY=0.5;exitDx=0;exitDy=0;dashed=1;" edge="1" parent="1" source="sekp1KyvqEFsNMxRi9oe-11">
          <mxGeometry width="50" height="50" relative="1" as="geometry">
            <mxPoint x="390" y="320" as="sourcePoint" />
            <mxPoint x="520" y="320" as="targetPoint" />
            <Array as="points">
              <mxPoint x="520" y="355" />
            </Array>
          </mxGeometry>
        </mxCell>
        <mxCell id="XbGWUctrTEADIuY7hZU9-14" value="" style="endArrow=classic;html=1;rounded=0;exitX=1;exitY=0.5;exitDx=0;exitDy=0;dashed=1;entryX=0;entryY=0;entryDx=0;entryDy=0;" edge="1" parent="1" source="sekp1KyvqEFsNMxRi9oe-8" target="sekp1KyvqEFsNMxRi9oe-21">
          <mxGeometry width="50" height="50" relative="1" as="geometry">
            <mxPoint x="425" y="230" as="sourcePoint" />
            <mxPoint x="520" y="275" as="targetPoint" />
            <Array as="points">
              <mxPoint x="535" y="215" />
            </Array>
          </mxGeometry>
        </mxCell>
        <mxCell id="XbGWUctrTEADIuY7hZU9-15" value="" style="endArrow=classic;html=1;rounded=0;exitX=1;exitY=0.5;exitDx=0;exitDy=0;dashed=1;entryX=0.5;entryY=0;entryDx=0;entryDy=0;" edge="1" parent="1" source="sekp1KyvqEFsNMxRi9oe-23" target="sekp1KyvqEFsNMxRi9oe-21">
          <mxGeometry width="50" height="50" relative="1" as="geometry">
            <mxPoint x="450" y="140" as="sourcePoint" />
            <mxPoint x="571" y="227" as="targetPoint" />
            <Array as="points">
              <mxPoint x="570" y="160" />
            </Array>
          </mxGeometry>
        </mxCell>
        <mxCell id="XbGWUctrTEADIuY7hZU9-16" value="" style="endArrow=classic;html=1;rounded=0;exitX=1;exitY=0.5;exitDx=0;exitDy=0;dashed=1;entryX=0;entryY=1;entryDx=0;entryDy=0;" edge="1" parent="1" source="sekp1KyvqEFsNMxRi9oe-12" target="sekp1KyvqEFsNMxRi9oe-21">
          <mxGeometry width="50" height="50" relative="1" as="geometry">
            <mxPoint x="440" y="395" as="sourcePoint" />
            <mxPoint x="535" y="360" as="targetPoint" />
            <Array as="points">
              <mxPoint x="535" y="415" />
            </Array>
          </mxGeometry>
        </mxCell>
        <mxCell id="XbGWUctrTEADIuY7hZU9-17" value="" style="endArrow=classic;html=1;rounded=0;exitX=1;exitY=0.5;exitDx=0;exitDy=0;dashed=1;entryX=0.5;entryY=1;entryDx=0;entryDy=0;" edge="1" parent="1" source="sekp1KyvqEFsNMxRi9oe-22" target="sekp1KyvqEFsNMxRi9oe-21">
          <mxGeometry width="50" height="50" relative="1" as="geometry">
            <mxPoint x="450" y="466" as="sourcePoint" />
            <mxPoint x="570" y="390" as="targetPoint" />
            <Array as="points">
              <mxPoint x="570" y="470" />
            </Array>
          </mxGeometry>
        </mxCell>
      </root>
    </mxGraphModel>
  </diagram>
</mxfile>
